<?xml version="1.0" encoding="UTF-8"?>
<?xml-stylesheet href="https://cdnjs.cloudflare.com/ajax/libs/font-awesome/6.7.2/css/all.min.css" type="text/css"?>
<svg id="graph-337" width="100%" xmlns="http://www.w3.org/2000/svg" class="mindmapDiagram" style="overflow: hidden; max-width: 100%; touch-action: none; user-select: none; -webkit-user-drag: none; -webkit-tap-highlight-color: rgba(0, 0, 0, 0); background-color: rgb(255, 255, 255);" role="graphics-document document" aria-roledescription="mindmap" height="100%" xmlns:xlink="http://www.w3.org/1999/xlink" xmlns:ev="http://www.w3.org/2001/xml-events"><g id="viewport-20251203132203919" class="svg-pan-zoom_viewport" transform="matrix(0.8694059007866048,0,0,0.8694059007866048,266.40438019337853,44.01492696742274)" style="transform: matrix(0.869406, 0, 0, 0.869406, 266.404, 44.0149);"><style>#graph-337{font-family:"trebuchet ms",verdana,arial,sans-serif;font-size:16px;fill:#333;}@keyframes edge-animation-frame{from{stroke-dashoffset:0;}}@keyframes dash{to{stroke-dashoffset:0;}}#graph-337 .edge-animation-slow{stroke-dasharray:9,5!important;stroke-dashoffset:900;animation:dash 50s linear infinite;stroke-linecap:round;}#graph-337 .edge-animation-fast{stroke-dasharray:9,5!important;stroke-dashoffset:900;animation:dash 20s linear infinite;stroke-linecap:round;}#graph-337 .error-icon{fill:#552222;}#graph-337 .error-text{fill:#552222;stroke:#552222;}#graph-337 .edge-thickness-normal{stroke-width:1px;}#graph-337 .edge-thickness-thick{stroke-width:3.5px;}#graph-337 .edge-pattern-solid{stroke-dasharray:0;}#graph-337 .edge-thickness-invisible{stroke-width:0;fill:none;}#graph-337 .edge-pattern-dashed{stroke-dasharray:3;}#graph-337 .edge-pattern-dotted{stroke-dasharray:2;}#graph-337 .marker{fill:#333333;stroke:#333333;}#graph-337 .marker.cross{stroke:#333333;}#graph-337 svg{font-family:"trebuchet ms",verdana,arial,sans-serif;font-size:16px;}#graph-337 p{margin:0;}#graph-337 .edge{stroke-width:3;}#graph-337 .section--1 rect,#graph-337 .section--1 path,#graph-337 .section--1 circle,#graph-337 .section--1 polygon,#graph-337 .section--1 path{fill:hsl(240, 100%, 76.2745098039%);}#graph-337 .section--1 text{fill:#ffffff;}#graph-337 .node-icon--1{font-size:40px;color:#ffffff;}#graph-337 .section-edge--1{stroke:hsl(240, 100%, 76.2745098039%);}#graph-337 .edge-depth--1{stroke-width:17;}#graph-337 .section--1 line{stroke:hsl(60, 100%, 86.2745098039%);stroke-width:3;}#graph-337 .disabled,#graph-337 .disabled circle,#graph-337 .disabled text{fill:lightgray;}#graph-337 .disabled text{fill:#efefef;}#graph-337 .section-0 rect,#graph-337 .section-0 path,#graph-337 .section-0 circle,#graph-337 .section-0 polygon,#graph-337 .section-0 path{fill:hsl(60, 100%, 73.5294117647%);}#graph-337 .section-0 text{fill:black;}#graph-337 .node-icon-0{font-size:40px;color:black;}#graph-337 .section-edge-0{stroke:hsl(60, 100%, 73.5294117647%);}#graph-337 .edge-depth-0{stroke-width:14;}#graph-337 .section-0 line{stroke:hsl(240, 100%, 83.5294117647%);stroke-width:3;}#graph-337 .disabled,#graph-337 .disabled circle,#graph-337 .disabled text{fill:lightgray;}#graph-337 .disabled text{fill:#efefef;}#graph-337 .section-1 rect,#graph-337 .section-1 path,#graph-337 .section-1 circle,#graph-337 .section-1 polygon,#graph-337 .section-1 path{fill:hsl(80, 100%, 76.2745098039%);}#graph-337 .section-1 text{fill:black;}#graph-337 .node-icon-1{font-size:40px;color:black;}#graph-337 .section-edge-1{stroke:hsl(80, 100%, 76.2745098039%);}#graph-337 .edge-depth-1{stroke-width:11;}#graph-337 .section-1 line{stroke:hsl(260, 100%, 86.2745098039%);stroke-width:3;}#graph-337 .disabled,#graph-337 .disabled circle,#graph-337 .disabled text{fill:lightgray;}#graph-337 .disabled text{fill:#efefef;}#graph-337 .section-2 rect,#graph-337 .section-2 path,#graph-337 .section-2 circle,#graph-337 .section-2 polygon,#graph-337 .section-2 path{fill:hsl(270, 100%, 76.2745098039%);}#graph-337 .section-2 text{fill:#ffffff;}#graph-337 .node-icon-2{font-size:40px;color:#ffffff;}#graph-337 .section-edge-2{stroke:hsl(270, 100%, 76.2745098039%);}#graph-337 .edge-depth-2{stroke-width:8;}#graph-337 .section-2 line{stroke:hsl(90, 100%, 86.2745098039%);stroke-width:3;}#graph-337 .disabled,#graph-337 .disabled circle,#graph-337 .disabled text{fill:lightgray;}#graph-337 .disabled text{fill:#efefef;}#graph-337 .section-3 rect,#graph-337 .section-3 path,#graph-337 .section-3 circle,#graph-337 .section-3 polygon,#graph-337 .section-3 path{fill:hsl(300, 100%, 76.2745098039%);}#graph-337 .section-3 text{fill:black;}#graph-337 .node-icon-3{font-size:40px;color:black;}#graph-337 .section-edge-3{stroke:hsl(300, 100%, 76.2745098039%);}#graph-337 .edge-depth-3{stroke-width:5;}#graph-337 .section-3 line{stroke:hsl(120, 100%, 86.2745098039%);stroke-width:3;}#graph-337 .disabled,#graph-337 .disabled circle,#graph-337 .disabled text{fill:lightgray;}#graph-337 .disabled text{fill:#efefef;}#graph-337 .section-4 rect,#graph-337 .section-4 path,#graph-337 .section-4 circle,#graph-337 .section-4 polygon,#graph-337 .section-4 path{fill:hsl(330, 100%, 76.2745098039%);}#graph-337 .section-4 text{fill:black;}#graph-337 .node-icon-4{font-size:40px;color:black;}#graph-337 .section-edge-4{stroke:hsl(330, 100%, 76.2745098039%);}#graph-337 .edge-depth-4{stroke-width:2;}#graph-337 .section-4 line{stroke:hsl(150, 100%, 86.2745098039%);stroke-width:3;}#graph-337 .disabled,#graph-337 .disabled circle,#graph-337 .disabled text{fill:lightgray;}#graph-337 .disabled text{fill:#efefef;}#graph-337 .section-5 rect,#graph-337 .section-5 path,#graph-337 .section-5 circle,#graph-337 .section-5 polygon,#graph-337 .section-5 path{fill:hsl(0, 100%, 76.2745098039%);}#graph-337 .section-5 text{fill:black;}#graph-337 .node-icon-5{font-size:40px;color:black;}#graph-337 .section-edge-5{stroke:hsl(0, 100%, 76.2745098039%);}#graph-337 .edge-depth-5{stroke-width:-1;}#graph-337 .section-5 line{stroke:hsl(180, 100%, 86.2745098039%);stroke-width:3;}#graph-337 .disabled,#graph-337 .disabled circle,#graph-337 .disabled text{fill:lightgray;}#graph-337 .disabled text{fill:#efefef;}#graph-337 .section-6 rect,#graph-337 .section-6 path,#graph-337 .section-6 circle,#graph-337 .section-6 polygon,#graph-337 .section-6 path{fill:hsl(30, 100%, 76.2745098039%);}#graph-337 .section-6 text{fill:black;}#graph-337 .node-icon-6{font-size:40px;color:black;}#graph-337 .section-edge-6{stroke:hsl(30, 100%, 76.2745098039%);}#graph-337 .edge-depth-6{stroke-width:-4;}#graph-337 .section-6 line{stroke:hsl(210, 100%, 86.2745098039%);stroke-width:3;}#graph-337 .disabled,#graph-337 .disabled circle,#graph-337 .disabled text{fill:lightgray;}#graph-337 .disabled text{fill:#efefef;}#graph-337 .section-7 rect,#graph-337 .section-7 path,#graph-337 .section-7 circle,#graph-337 .section-7 polygon,#graph-337 .section-7 path{fill:hsl(90, 100%, 76.2745098039%);}#graph-337 .section-7 text{fill:black;}#graph-337 .node-icon-7{font-size:40px;color:black;}#graph-337 .section-edge-7{stroke:hsl(90, 100%, 76.2745098039%);}#graph-337 .edge-depth-7{stroke-width:-7;}#graph-337 .section-7 line{stroke:hsl(270, 100%, 86.2745098039%);stroke-width:3;}#graph-337 .disabled,#graph-337 .disabled circle,#graph-337 .disabled text{fill:lightgray;}#graph-337 .disabled text{fill:#efefef;}#graph-337 .section-8 rect,#graph-337 .section-8 path,#graph-337 .section-8 circle,#graph-337 .section-8 polygon,#graph-337 .section-8 path{fill:hsl(150, 100%, 76.2745098039%);}#graph-337 .section-8 text{fill:black;}#graph-337 .node-icon-8{font-size:40px;color:black;}#graph-337 .section-edge-8{stroke:hsl(150, 100%, 76.2745098039%);}#graph-337 .edge-depth-8{stroke-width:-10;}#graph-337 .section-8 line{stroke:hsl(330, 100%, 86.2745098039%);stroke-width:3;}#graph-337 .disabled,#graph-337 .disabled circle,#graph-337 .disabled text{fill:lightgray;}#graph-337 .disabled text{fill:#efefef;}#graph-337 .section-9 rect,#graph-337 .section-9 path,#graph-337 .section-9 circle,#graph-337 .section-9 polygon,#graph-337 .section-9 path{fill:hsl(180, 100%, 76.2745098039%);}#graph-337 .section-9 text{fill:black;}#graph-337 .node-icon-9{font-size:40px;color:black;}#graph-337 .section-edge-9{stroke:hsl(180, 100%, 76.2745098039%);}#graph-337 .edge-depth-9{stroke-width:-13;}#graph-337 .section-9 line{stroke:hsl(0, 100%, 86.2745098039%);stroke-width:3;}#graph-337 .disabled,#graph-337 .disabled circle,#graph-337 .disabled text{fill:lightgray;}#graph-337 .disabled text{fill:#efefef;}#graph-337 .section-10 rect,#graph-337 .section-10 path,#graph-337 .section-10 circle,#graph-337 .section-10 polygon,#graph-337 .section-10 path{fill:hsl(210, 100%, 76.2745098039%);}#graph-337 .section-10 text{fill:black;}#graph-337 .node-icon-10{font-size:40px;color:black;}#graph-337 .section-edge-10{stroke:hsl(210, 100%, 76.2745098039%);}#graph-337 .edge-depth-10{stroke-width:-16;}#graph-337 .section-10 line{stroke:hsl(30, 100%, 86.2745098039%);stroke-width:3;}#graph-337 .disabled,#graph-337 .disabled circle,#graph-337 .disabled text{fill:lightgray;}#graph-337 .disabled text{fill:#efefef;}#graph-337 .section-root rect,#graph-337 .section-root path,#graph-337 .section-root circle,#graph-337 .section-root polygon{fill:hsl(240, 100%, 46.2745098039%);}#graph-337 .section-root text{fill:#ffffff;}#graph-337 .section-root span{color:#ffffff;}#graph-337 .section-2 span{color:#ffffff;}#graph-337 .icon-container{height:100%;display:flex;justify-content:center;align-items:center;}#graph-337 .edge{fill:none;}#graph-337 .mindmap-node-label{dy:1em;alignment-baseline:middle;text-anchor:middle;dominant-baseline:middle;text-align:center;}#graph-337 :root{--mermaid-font-family:"trebuchet ms",verdana,arial,sans-serif;}</style><g><marker id="graph-337_mindmap-pointEnd" class="marker mindmap" viewBox="0 0 10 10" refX="5" refY="5" markerUnits="userSpaceOnUse" markerWidth="8" markerHeight="8" orient="auto"><path d="M 0 0 L 10 5 L 0 10 z" class="arrowMarkerPath" style="stroke-width: 1; stroke-dasharray: 1, 0;"></path></marker><marker id="graph-337_mindmap-pointStart" class="marker mindmap" viewBox="0 0 10 10" refX="4.5" refY="5" markerUnits="userSpaceOnUse" markerWidth="8" markerHeight="8" orient="auto"><path d="M 0 5 L 10 10 L 10 0 z" class="arrowMarkerPath" style="stroke-width: 1; stroke-dasharray: 1, 0;"></path></marker><g class="subgraphs"></g><g class="edgePaths"><path d="M635.356,327.186L621.292,327.652C607.229,328.117,579.102,329.048,550.974,329.979C522.847,330.91,494.72,331.841,480.656,332.306L466.592,332.772" id="edge_0_1" class="edge-thickness-normal edge-pattern-solid edge section-edge-0 edge-depth-1" style="undefined;;;undefined" data-edge="true" data-et="edge" data-id="edge_0_1" data-points="W3sieCI6NjM1LjM1NjA4MDk3MjU0NDMsInkiOjMyNy4xODYxMTQ0NDY2OTI1fSx7IngiOjU1MC45NzQyNTIxNDk4NjcxLCJ5IjozMjkuOTc5MDQ1NTI0NDQ1N30seyJ4Ijo0NjYuNTkyNDIzMzI3MTg5ODYsInkiOjMzMi43NzE5NzY2MDIxOTg5NX1d"></path><path d="M438.068,326.798L428.313,322.135C418.559,317.472,399.05,308.145,379.542,298.818C360.033,289.491,340.524,280.164,330.77,275.501L321.015,270.838" id="edge_1_2" class="edge-thickness-normal edge-pattern-solid edge section-edge-0 edge-depth-3" style="undefined;;;undefined" data-edge="true" data-et="edge" data-id="edge_1_2" data-points="W3sieCI6NDM4LjA2NzY3NzEwMzMyOTUsInkiOjMyNi43OTgzMjQ1NjQyNzgzNX0seyJ4IjozNzkuNTQxNTExOTA3MzAyNywieSI6Mjk4LjgxODAyNDYyODE2MzI0fSx7IngiOjMyMS4wMTUzNDY3MTEyNzYwNCwieSI6MjcwLjgzNzcyNDY5MjA0ODE0fV0="></path><path d="M437.44,338.216L424.503,342.736C411.566,347.256,385.692,356.297,359.818,365.337C333.943,374.378,308.069,383.418,295.132,387.939L282.195,392.459" id="edge_1_3" class="edge-thickness-normal edge-pattern-solid edge section-edge-0 edge-depth-3" style="undefined;;;undefined" data-edge="true" data-et="edge" data-id="edge_1_3" data-points="W3sieCI6NDM3LjQ0MDEyMDk3MjAwMDU2LCJ5IjozMzguMjE1OTAyMjUyNjU0N30seyJ4IjozNTkuODE3NTk4OTc4NDg2LCJ5IjozNjUuMzM3Mzk1NDYzMDIwMTN9LHsieCI6MjgyLjE5NTA3Njk4NDk3MTQsInkiOjM5Mi40NTg4ODg2NzMzODU1Nn1d"></path><path d="M253.567,393.447L242.006,390.282C230.446,387.118,207.325,380.79,184.205,374.462C161.084,368.133,137.963,361.805,126.403,358.641L114.843,355.477" id="edge_3_4" class="edge-thickness-normal edge-pattern-solid edge section-edge-0 edge-depth-5" style="undefined;;;undefined" data-edge="true" data-et="edge" data-id="edge_3_4" data-points="W3sieCI6MjUzLjU2NjcxOTY4MDgwNDc0LCJ5IjozOTMuNDQ2NjIzNjE2OTQ0NDZ9LHsieCI6MTg0LjIwNDc4MjQ2NTkzNzUsInkiOjM3NC40NjE2MjcxNTU0ODg2fSx7IngiOjExNC44NDI4NDUyNTEwNzAyOSwieSI6MzU1LjQ3NjYzMDY5NDAzMjc0fV0="></path><path d="M651.909,311.771L652.49,306.213C653.072,300.655,654.235,289.538,655.398,278.422C656.561,267.305,657.724,256.189,658.306,250.631L658.887,245.072" id="edge_0_5" class="edge-thickness-normal edge-pattern-solid edge section-edge-1 edge-depth-1" style="undefined;;;undefined" data-edge="true" data-et="edge" data-id="edge_0_5" data-points="W3sieCI6NjUxLjkwODczMTA5NDg0NzksInkiOjMxMS43NzEzMzU3NTU3MjY4NX0seyJ4Ijo2NTUuMzk3OTM0MjE2MjUxOCwieSI6Mjc4LjQyMTgxOTg4NDA0MDkzfSx7IngiOjY1OC44ODcxMzczMzc2NTU2LCJ5IjoyNDUuMDcyMzA0MDEyMzU1fV0="></path><path d="M646.033,226.007L636.17,223.17C626.308,220.333,606.583,214.659,586.858,208.985C567.134,203.311,547.409,197.637,537.546,194.8L527.684,191.963" id="edge_5_6" class="edge-thickness-normal edge-pattern-solid edge section-edge-1 edge-depth-3" style="undefined;;;undefined" data-edge="true" data-et="edge" data-id="edge_5_6" data-points="W3sieCI6NjQ2LjAzMjU3MjQ5MTk2NDMsInkiOjIyNi4wMDY5ODQ5NTQ1NzE4fSx7IngiOjU4Ni44NTgyNzI5MDYxMDAyLCJ5IjoyMDguOTg0ODcxMTQ2MDczMjZ9LHsieCI6NTI3LjY4Mzk3MzMyMDIzNjEsInkiOjE5MS45NjI3NTczMzc1NzQ3MX1d"></path><path d="M499.194,182.629L486.899,178.097C474.603,173.565,450.012,164.502,425.422,155.439C400.831,146.375,376.24,137.312,363.945,132.78L351.649,128.249" id="edge_6_7" class="edge-thickness-normal edge-pattern-solid edge section-edge-1 edge-depth-5" style="undefined;;;undefined" data-edge="true" data-et="edge" data-id="edge_6_7" data-points="W3sieCI6NDk5LjE5NDA2MjE4OTkxMDYsInkiOjE4Mi42Mjg2MzU1NjI0NzQ3OH0seyJ4Ijo0MjUuNDIxNjY5MTc4MzI2MiwieSI6MTU1LjQzODY2NTY0MDY3NTE0fSx7IngiOjM1MS42NDkyNzYxNjY3NDE4NiwieSI6MTI4LjI0ODY5NTcxODg3NTV9XQ=="></path><path d="M664.353,215.671L665.674,210.771C666.994,205.871,669.636,196.072,672.278,186.273C674.92,176.473,677.562,166.674,678.883,161.774L680.204,156.874" id="edge_5_8" class="edge-thickness-normal edge-pattern-solid edge section-edge-1 edge-depth-3" style="undefined;;;undefined" data-edge="true" data-et="edge" data-id="edge_5_8" data-points="W3sieCI6NjY0LjM1MjU3NjUxMzIzMjEsInkiOjIxNS42NzA4MzkwNTgzMTQ0N30seyJ4Ijo2NzIuMjc4MzEyOTgxMzI0OSwieSI6MTg2LjI3MjYzNzA5MjkxNjY4fSx7IngiOjY4MC4yMDQwNDk0NDk0MTc4LCJ5IjoxNTYuODc0NDM1MTI3NTE4OX1d"></path><path d="M680.53,127.825L679.112,122.053C677.694,116.282,674.858,104.739,672.022,93.196C669.186,81.653,666.351,70.11,664.933,64.338L663.515,58.567" id="edge_8_9" class="edge-thickness-normal edge-pattern-solid edge section-edge-1 edge-depth-5" style="undefined;;;undefined" data-edge="true" data-et="edge" data-id="edge_8_9" data-points="W3sieCI6NjgwLjUyOTg3NjcyMTgxNzIsInkiOjEyNy44MjQ3MDk3OTAxNTMxNn0seyJ4Ijo2NzIuMDIyMzAyMjAyMDQ0OSwieSI6OTMuMTk1NzY5ODQ4MzkxMTR9LHsieCI6NjYzLjUxNDcyNzY4MjI3MjYsInkiOjU4LjU2NjgyOTkwNjYyOTExfV0="></path><path d="M675.38,228.728L683.889,227.916C692.398,227.104,709.415,225.479,726.433,223.855C743.45,222.23,760.467,220.606,768.976,219.794L777.485,218.982" id="edge_5_10" class="edge-thickness-normal edge-pattern-solid edge section-edge-1 edge-depth-3" style="undefined;;;undefined" data-edge="true" data-et="edge" data-id="edge_5_10" data-points="W3sieCI6Njc1LjM4MDExNzc1MjgzNDIsInkiOjIyOC43MjgzMzExOTk2ODQ0NX0seyJ4Ijo3MjYuNDMyNTMwOTQ5MzQyMiwieSI6MjIzLjg1NDkyNTc2MjIxODk1fSx7IngiOjc3Ny40ODQ5NDQxNDU4NTAyLCJ5IjoyMTguOTgxNTIwMzI0NzUzNDZ9XQ=="></path><path d="M806.515,212.434L818.291,208.156C830.066,203.878,853.617,195.322,877.168,186.766C900.719,178.21,924.27,169.654,936.045,165.375L947.821,161.097" id="edge_10_11" class="edge-thickness-normal edge-pattern-solid edge section-edge-1 edge-depth-5" style="undefined;;;undefined" data-edge="true" data-et="edge" data-id="edge_10_11" data-points="W3sieCI6ODA2LjUxNTQ3MjA4MzM4NjUsInkiOjIxMi40MzQxMTQ0NTc5NzQ5NH0seyJ4Ijo4NzcuMTY4MDc2NjY4NDg4OSwieSI6MTg2Ljc2NTc2NjY3OTkxODF9LHsieCI6OTQ3LjgyMDY4MTI1MzU5MTMsInkiOjE2MS4wOTc0MTg5MDE4NjEyNn1d"></path><path d="M659.129,338.851L662.874,344.037C666.618,349.223,674.107,359.594,681.596,369.966C689.085,380.338,696.574,390.709,700.319,395.895L704.063,401.081" id="edge_0_12" class="edge-thickness-normal edge-pattern-solid edge section-edge-2 edge-depth-1" style="undefined;;;undefined" data-edge="true" data-et="edge" data-id="edge_0_12" data-points="W3sieCI6NjU5LjEyOTAwMzA4NjQyMTIsInkiOjMzOC44NTA5Nzk0MTM1MDA4fSx7IngiOjY4MS41OTYxMjQ2OTM0MTEsInkiOjM2OS45NjU5MTI4MDc4NjA4M30seyJ4Ijo3MDQuMDYzMjQ2MzAwNDAwNywieSI6NDAxLjA4MDg0NjIwMjIyMDg3fV0="></path><path d="M726.054,406.135L733.065,402.362C740.076,398.59,754.098,391.045,768.12,383.5C782.143,375.955,796.165,368.41,803.176,364.638L810.187,360.866" id="edge_12_13" class="edge-thickness-normal edge-pattern-solid edge section-edge-2 edge-depth-3" style="undefined;;;undefined" data-edge="true" data-et="edge" data-id="edge_12_13" data-points="W3sieCI6NzI2LjA1MzY0Nzg3NDc2ODksInkiOjQwNi4xMzQ1MTYyODYwMzV9LHsieCI6NzY4LjEyMDI4OTc3MzkyMTIsInkiOjM4My41MDAwNjEzNjExNzUyfSx7IngiOjgxMC4xODY5MzE2NzMwNzM0LCJ5IjozNjAuODY1NjA2NDM2MzE1NH1d"></path><path d="M837.872,349.827L849.034,346.795C860.197,343.763,882.522,337.7,904.846,331.637C927.171,325.574,949.496,319.51,960.659,316.479L971.821,313.447" id="edge_13_14" class="edge-thickness-normal edge-pattern-solid edge section-edge-2 edge-depth-5" style="undefined;;;undefined" data-edge="true" data-et="edge" data-id="edge_13_14" data-points="W3sieCI6ODM3Ljg3MTgxOTQzMzM0ODUsInkiOjM0OS44MjY3Mjg5MjMzMzkxNX0seyJ4Ijo5MDQuODQ2NDQ3OTk5NTkxOCwieSI6MzMxLjYzNjkwMjc2ODgzOTE1fSx7IngiOjk3MS44MjEwNzY1NjU4MzUsInkiOjMxMy40NDcwNzY2MTQzMzkxNX1d"></path><path d="M727.262,417.382L739.32,420.845C751.379,424.308,775.496,431.233,799.612,438.159C823.729,445.085,847.846,452.01,859.905,455.473L871.963,458.936" id="edge_12_15" class="edge-thickness-normal edge-pattern-solid edge section-edge-2 edge-depth-3" style="undefined;;;undefined" data-edge="true" data-et="edge" data-id="edge_12_15" data-points="W3sieCI6NzI3LjI2MTY4NzQwNDk2NTEsInkiOjQxNy4zODIxMTI2OTQwOTUwNH0seyJ4Ijo3OTkuNjEyNDUxNTA1Njc4OCwieSI6NDM4LjE1ODk0OTM3NjkzNzM2fSx7IngiOjg3MS45NjMyMTU2MDYzOTI1LCJ5Ijo0NTguOTM1Nzg2MDU5Nzc5N31d"></path><path d="M901.273,461.282L919.384,459.101C937.496,456.919,973.719,452.556,1009.942,448.193C1046.166,443.83,1082.389,439.467,1100.5,437.285L1118.612,435.104" id="edge_15_16" class="edge-thickness-normal edge-pattern-solid edge section-edge-2 edge-depth-5" style="undefined;;;undefined" data-edge="true" data-et="edge" data-id="edge_15_16" data-points="W3sieCI6OTAxLjI3Mjg4NDQ3MzY4MTIsInkiOjQ2MS4yODIyMDQwOTkyODYyfSx7IngiOjEwMDkuOTQyNDQ5OTU0MzY5MywieSI6NDQ4LjE5MzAzMDc3Mzc5MDR9LHsieCI6MTExOC42MTIwMTU0MzUwNTc2LCJ5Ijo0MzUuMTAzODU3NDQ4Mjk0NTV9XQ=="></path><path d="M897.816,472.784L903.889,477.939C909.962,483.095,922.109,493.407,934.255,503.718C946.402,514.03,958.548,524.341,964.621,529.497L970.695,534.653" id="edge_15_17" class="edge-thickness-normal edge-pattern-solid edge section-edge-2 edge-depth-5" style="undefined;;;undefined" data-edge="true" data-et="edge" data-id="edge_15_17" data-points="W3sieCI6ODk3LjgxNTY2MTc3Mjc4NDEsInkiOjQ3Mi43ODM1ODU5ODQ1MzkzfSx7IngiOjkzNC4yNTUxMTQ2MjMwNTAzLCJ5Ijo1MDMuNzE4MDU2ODMwNzgzMn0seyJ4Ijo5NzAuNjk0NTY3NDczMzE2NSwieSI6NTM0LjY1MjUyNzY3NzAyNzF9XQ=="></path><path d="M702.489,424.094L698.253,428.533C694.017,432.972,685.546,441.85,677.074,450.729C668.602,459.607,660.131,468.485,655.895,472.924L651.659,477.363" id="edge_12_18" class="edge-thickness-normal edge-pattern-solid edge section-edge-2 edge-depth-3" style="undefined;;;undefined" data-edge="true" data-et="edge" data-id="edge_12_18" data-points="W3sieCI6NzAyLjQ4OTExMzQyMTk1MjgsInkiOjQyNC4wOTQwMzk2MzE3OTh9LHsieCI6Njc3LjA3Mzk1MzM2ODI3ODIsInkiOjQ1MC43Mjg2NDExNjYxMTU4NH0seyJ4Ijo2NTEuNjU4NzkzMzE0NjAzNywieSI6NDc3LjM2MzI0MjcwMDQzMzY2fV0="></path><path d="M652.861,497.777L657.88,501.928C662.898,506.08,672.935,514.382,682.972,522.685C693.009,530.988,703.045,539.291,708.064,543.443L713.082,547.594" id="edge_18_19" class="edge-thickness-normal edge-pattern-solid edge section-edge-2 edge-depth-5" style="undefined;;;undefined" data-edge="true" data-et="edge" data-id="edge_18_19" data-points="W3sieCI6NjUyLjg2MTM1MzUxNzYzNDgsInkiOjQ5Ny43NzY1NjkyMjc3MTk3fSx7IngiOjY4Mi45NzE4Mjg5MjUwNzgxLCJ5Ijo1MjIuNjg1NDUxMTIyNzcyN30seyJ4Ijo3MTMuMDgyMzA0MzMyNTIxMywieSI6NTQ3LjU5NDMzMzAxNzgyNTh9XQ=="></path><path d="M626.646,485.026L615.55,482.612C604.453,480.198,582.26,475.369,560.067,470.541C537.874,465.712,515.681,460.884,504.584,458.47L493.487,456.055" id="edge_18_20" class="edge-thickness-normal edge-pattern-solid edge section-edge-2 edge-depth-5" style="undefined;;;undefined" data-edge="true" data-et="edge" data-id="edge_18_20" data-points="W3sieCI6NjI2LjY0NjQxNzQ5MjU5NjUsInkiOjQ4NS4wMjY0NjA0MTgwNzExfSx7IngiOjU2MC4wNjY5MzM2NDI0OTA4LCJ5Ijo0NzAuNTQwOTcxNDg1OTE0ODR9LHsieCI6NDkzLjQ4NzQ0OTc5MjM4NTA2LCJ5Ijo0NTYuMDU1NDgyNTUzNzU4NTd9XQ=="></path><path d="M627.812,494.772L619.97,498.583C612.128,502.395,596.444,510.017,580.76,517.64C565.075,525.262,549.391,532.885,541.549,536.696L533.707,540.507" id="edge_18_21" class="edge-thickness-normal edge-pattern-solid edge section-edge-2 edge-depth-5" style="undefined;;;undefined" data-edge="true" data-et="edge" data-id="edge_18_21" data-points="W3sieCI6NjI3LjgxMjQwMzUxMDU4MzYsInkiOjQ5NC43NzIwMDMxNDUxMDE3M30seyJ4Ijo1ODAuNzU5NTk0NzAyMzgzNywieSI6NTE3LjYzOTUwODk5Mjk5OTR9LHsieCI6NTMzLjcwNjc4NTg5NDE4MzcsInkiOjU0MC41MDcwMTQ4NDA4OTd9XQ=="></path></g><g class="edgeLabels"><g class="edgeLabel"><g class="label" data-id="edge_0_1" transform="translate(0, 0)"><foreignObject width="0" height="0"><div xmlns="http://www.w3.org/1999/xhtml" class="labelBkg" style="display: table-cell; white-space: nowrap; line-height: 1.5; max-width: 200px; text-align: center;"><span class="edgeLabel"></span></div></foreignObject></g></g><g class="edgeLabel"><g class="label" data-id="edge_1_2" transform="translate(0, 0)"><foreignObject width="0" height="0"><div xmlns="http://www.w3.org/1999/xhtml" class="labelBkg" style="display: table-cell; white-space: nowrap; line-height: 1.5; max-width: 200px; text-align: center;"><span class="edgeLabel"></span></div></foreignObject></g></g><g class="edgeLabel"><g class="label" data-id="edge_1_3" transform="translate(0, 0)"><foreignObject width="0" height="0"><div xmlns="http://www.w3.org/1999/xhtml" class="labelBkg" style="display: table-cell; white-space: nowrap; line-height: 1.5; max-width: 200px; text-align: center;"><span class="edgeLabel"></span></div></foreignObject></g></g><g class="edgeLabel"><g class="label" data-id="edge_3_4" transform="translate(0, 0)"><foreignObject width="0" height="0"><div xmlns="http://www.w3.org/1999/xhtml" class="labelBkg" style="display: table-cell; white-space: nowrap; line-height: 1.5; max-width: 200px; text-align: center;"><span class="edgeLabel"></span></div></foreignObject></g></g><g class="edgeLabel"><g class="label" data-id="edge_0_5" transform="translate(0, 0)"><foreignObject width="0" height="0"><div xmlns="http://www.w3.org/1999/xhtml" class="labelBkg" style="display: table-cell; white-space: nowrap; line-height: 1.5; max-width: 200px; text-align: center;"><span class="edgeLabel"></span></div></foreignObject></g></g><g class="edgeLabel"><g class="label" data-id="edge_5_6" transform="translate(0, 0)"><foreignObject width="0" height="0"><div xmlns="http://www.w3.org/1999/xhtml" class="labelBkg" style="display: table-cell; white-space: nowrap; line-height: 1.5; max-width: 200px; text-align: center;"><span class="edgeLabel"></span></div></foreignObject></g></g><g class="edgeLabel"><g class="label" data-id="edge_6_7" transform="translate(0, 0)"><foreignObject width="0" height="0"><div xmlns="http://www.w3.org/1999/xhtml" class="labelBkg" style="display: table-cell; white-space: nowrap; line-height: 1.5; max-width: 200px; text-align: center;"><span class="edgeLabel"></span></div></foreignObject></g></g><g class="edgeLabel"><g class="label" data-id="edge_5_8" transform="translate(0, 0)"><foreignObject width="0" height="0"><div xmlns="http://www.w3.org/1999/xhtml" class="labelBkg" style="display: table-cell; white-space: nowrap; line-height: 1.5; max-width: 200px; text-align: center;"><span class="edgeLabel"></span></div></foreignObject></g></g><g class="edgeLabel"><g class="label" data-id="edge_8_9" transform="translate(0, 0)"><foreignObject width="0" height="0"><div xmlns="http://www.w3.org/1999/xhtml" class="labelBkg" style="display: table-cell; white-space: nowrap; line-height: 1.5; max-width: 200px; text-align: center;"><span class="edgeLabel"></span></div></foreignObject></g></g><g class="edgeLabel"><g class="label" data-id="edge_5_10" transform="translate(0, 0)"><foreignObject width="0" height="0"><div xmlns="http://www.w3.org/1999/xhtml" class="labelBkg" style="display: table-cell; white-space: nowrap; line-height: 1.5; max-width: 200px; text-align: center;"><span class="edgeLabel"></span></div></foreignObject></g></g><g class="edgeLabel"><g class="label" data-id="edge_10_11" transform="translate(0, 0)"><foreignObject width="0" height="0"><div xmlns="http://www.w3.org/1999/xhtml" class="labelBkg" style="display: table-cell; white-space: nowrap; line-height: 1.5; max-width: 200px; text-align: center;"><span class="edgeLabel"></span></div></foreignObject></g></g><g class="edgeLabel"><g class="label" data-id="edge_0_12" transform="translate(0, 0)"><foreignObject width="0" height="0"><div xmlns="http://www.w3.org/1999/xhtml" class="labelBkg" style="display: table-cell; white-space: nowrap; line-height: 1.5; max-width: 200px; text-align: center;"><span class="edgeLabel"></span></div></foreignObject></g></g><g class="edgeLabel"><g class="label" data-id="edge_12_13" transform="translate(0, 0)"><foreignObject width="0" height="0"><div xmlns="http://www.w3.org/1999/xhtml" class="labelBkg" style="display: table-cell; white-space: nowrap; line-height: 1.5; max-width: 200px; text-align: center;"><span class="edgeLabel"></span></div></foreignObject></g></g><g class="edgeLabel"><g class="label" data-id="edge_13_14" transform="translate(0, 0)"><foreignObject width="0" height="0"><div xmlns="http://www.w3.org/1999/xhtml" class="labelBkg" style="display: table-cell; white-space: nowrap; line-height: 1.5; max-width: 200px; text-align: center;"><span class="edgeLabel"></span></div></foreignObject></g></g><g class="edgeLabel"><g class="label" data-id="edge_12_15" transform="translate(0, 0)"><foreignObject width="0" height="0"><div xmlns="http://www.w3.org/1999/xhtml" class="labelBkg" style="display: table-cell; white-space: nowrap; line-height: 1.5; max-width: 200px; text-align: center;"><span class="edgeLabel"></span></div></foreignObject></g></g><g class="edgeLabel"><g class="label" data-id="edge_15_16" transform="translate(0, 0)"><foreignObject width="0" height="0"><div xmlns="http://www.w3.org/1999/xhtml" class="labelBkg" style="display: table-cell; white-space: nowrap; line-height: 1.5; max-width: 200px; text-align: center;"><span class="edgeLabel"></span></div></foreignObject></g></g><g class="edgeLabel"><g class="label" data-id="edge_15_17" transform="translate(0, 0)"><foreignObject width="0" height="0"><div xmlns="http://www.w3.org/1999/xhtml" class="labelBkg" style="display: table-cell; white-space: nowrap; line-height: 1.5; max-width: 200px; text-align: center;"><span class="edgeLabel"></span></div></foreignObject></g></g><g class="edgeLabel"><g class="label" data-id="edge_12_18" transform="translate(0, 0)"><foreignObject width="0" height="0"><div xmlns="http://www.w3.org/1999/xhtml" class="labelBkg" style="display: table-cell; white-space: nowrap; line-height: 1.5; max-width: 200px; text-align: center;"><span class="edgeLabel"></span></div></foreignObject></g></g><g class="edgeLabel"><g class="label" data-id="edge_18_19" transform="translate(0, 0)"><foreignObject width="0" height="0"><div xmlns="http://www.w3.org/1999/xhtml" class="labelBkg" style="display: table-cell; white-space: nowrap; line-height: 1.5; max-width: 200px; text-align: center;"><span class="edgeLabel"></span></div></foreignObject></g></g><g class="edgeLabel"><g class="label" data-id="edge_18_20" transform="translate(0, 0)"><foreignObject width="0" height="0"><div xmlns="http://www.w3.org/1999/xhtml" class="labelBkg" style="display: table-cell; white-space: nowrap; line-height: 1.5; max-width: 200px; text-align: center;"><span class="edgeLabel"></span></div></foreignObject></g></g><g class="edgeLabel"><g class="label" data-id="edge_18_21" transform="translate(0, 0)"><foreignObject width="0" height="0"><div xmlns="http://www.w3.org/1999/xhtml" class="labelBkg" style="display: table-cell; white-space: nowrap; line-height: 1.5; max-width: 200px; text-align: center;"><span class="edgeLabel"></span></div></foreignObject></g></g></g><g class="nodes"><g class="node mindmap-node section-root section--1" id="node_0" transform="translate(650.3478712746372, 326.68990527903077)"><circle class="basic label-container" style="" r="22.8984375" cx="0" cy="0"></circle><g class="label" style="" transform="translate(-12.8984375, -12)"><rect></rect><foreignObject width="25.796875" height="24"><div xmlns="http://www.w3.org/1999/xhtml" style="display: table-cell; white-space: nowrap; line-height: 1.5; max-width: 200px; text-align: center;"><span class="nodeLabel"><p>sed</p></span></div></foreignObject></g></g><g class="node mindmap-node section-0" id="node_1" transform="translate(451.60063302509695, 333.2681857698607)"><path id="node-1" class="node-bkg node-0" style="" d="M-120 24
    v-48
    q0,-5 5,-5
    h230
    q5,0 5,5
    v48
    q0,5 -5,5
    h-230
    q-5,0 -5,-5
    Z"></path><line class="node-line-" x1="-120" y1="29" x2="120" y2="29"></line><g class="label" style="" transform="translate(-100, -24)"><rect></rect><foreignObject width="200" height="48"><div xmlns="http://www.w3.org/1999/xhtml" style="display: table; white-space: break-spaces; line-height: 1.5; max-width: 200px; text-align: center; width: 200px;"><span class="nodeLabel"><p>Type of regular exprenssions</p></span></div></foreignObject></g></g><g class="node mindmap-node section-0" id="node_2" transform="translate(307.4823907895086, 264.3678634864658)"><path id="node-2" class="node-bkg node-0" style="" d="M-48.015625 12
    v-24
    q0,-5 5,-5
    h86.03125
    q5,0 5,5
    v24
    q0,5 -5,5
    h-86.03125
    q-5,0 -5,-5
    Z"></path><line class="node-line-" x1="-48.015625" y1="17" x2="48.015625" y2="17"></line><g class="label" style="" transform="translate(-28.015625, -12)"><rect></rect><foreignObject width="56.03125" height="24"><div xmlns="http://www.w3.org/1999/xhtml" style="display: table-cell; white-space: nowrap; line-height: 1.5; max-width: 200px; text-align: center;"><span class="nodeLabel"><p>Regular</p></span></div></foreignObject></g></g><g class="node mindmap-node section-0" id="node_3" transform="translate(268.034564931875, 397.4066051561796)"><path id="node-3" class="node-bkg node-0" style="" d="M-53.8046875 12
    v-24
    q0,-5 5,-5
    h97.609375
    q5,0 5,5
    v24
    q0,5 -5,5
    h-97.609375
    q-5,0 -5,-5
    Z"></path><line class="node-line-" x1="-53.8046875" y1="17" x2="53.8046875" y2="17"></line><g class="label" style="" transform="translate(-33.8046875, -12)"><rect></rect><foreignObject width="67.609375" height="24"><div xmlns="http://www.w3.org/1999/xhtml" style="display: table-cell; white-space: nowrap; line-height: 1.5; max-width: 200px; text-align: center;"><span class="nodeLabel"><p>Extended</p></span></div></foreignObject></g></g><g class="node mindmap-node section-0" id="node_4" transform="translate(100.375, 351.5166491547976)"><path id="node-4" class="node-bkg node-0" style="" d="M-85.375 12
    v-24
    q0,-5 5,-5
    h160.75
    q5,0 5,5
    v24
    q0,5 -5,5
    h-160.75
    q-5,0 -5,-5
    Z"></path><line class="node-line-" x1="-85.375" y1="17" x2="85.375" y2="17"></line><g class="label" style="" transform="translate(-65.375, -12)"><rect></rect><foreignObject width="130.75" height="24"><div xmlns="http://www.w3.org/1999/xhtml" style="display: table-cell; white-space: nowrap; line-height: 1.5; max-width: 200px; text-align: center;"><span class="nodeLabel"><p>--regexp-extended</p></span></div></foreignObject></g></g><g class="node mindmap-node section-1" id="node_5" transform="translate(660.4479971578663, 230.1537344890511)"><path id="node-5" class="node-bkg node-0" style="" d="M-37.796875 12
    v-24
    q0,-5 5,-5
    h65.59375
    q5,0 5,5
    v24
    q0,5 -5,5
    h-65.59375
    q-5,0 -5,-5
    Z"></path><line class="node-line-" x1="-37.796875" y1="17" x2="37.796875" y2="17"></line><g class="label" style="" transform="translate(-17.796875, -12)"><rect></rect><foreignObject width="35.59375" height="24"><div xmlns="http://www.w3.org/1999/xhtml" style="display: table-cell; white-space: nowrap; line-height: 1.5; max-width: 200px; text-align: center;"><span class="nodeLabel"><p>Input</p></span></div></foreignObject></g></g><g class="node mindmap-node section-1" id="node_6" transform="translate(513.268548654334, 187.81600780309543)"><path id="node-6" class="node-bkg node-0" style="" d="M-56.015625 12
    v-24
    q0,-5 5,-5
    h102.03125
    q5,0 5,5
    v24
    q0,5 -5,5
    h-102.03125
    q-5,0 -5,-5
    Z"></path><line class="node-line-" x1="-56.015625" y1="17" x2="56.015625" y2="17"></line><g class="label" style="" transform="translate(-36.015625, -12)"><rect></rect><foreignObject width="72.03125" height="24"><div xmlns="http://www.w3.org/1999/xhtml" style="display: table-cell; white-space: nowrap; line-height: 1.5; max-width: 200px; text-align: center;"><span class="nodeLabel"><p>From pipe</p></span></div></foreignObject></g></g><g class="node mindmap-node section-1" id="node_7" transform="translate(337.5747897023184, 123.06132347825485)"><path id="node-7" class="node-bkg node-0" style="" d="M-120 24
    v-48
    q0,-5 5,-5
    h230
    q5,0 5,5
    v48
    q0,5 -5,5
    h-230
    q-5,0 -5,-5
    Z"></path><line class="node-line-" x1="-120" y1="29" x2="120" y2="29"></line><g class="label" style="" transform="translate(-100, -24)"><rect></rect><foreignObject width="200" height="48"><div xmlns="http://www.w3.org/1999/xhtml" style="display: table; white-space: break-spaces; line-height: 1.5; max-width: 200px; text-align: center; width: 200px;"><span class="nodeLabel"><p>cat my_file.txt | sed do_something</p></span></div></foreignObject></g></g><g class="node mindmap-node section-1" id="node_8" transform="translate(684.1086288047835, 142.39153969678227)"><path id="node-8" class="node-bkg node-0" style="" d="M-51.1171875 12
    v-24
    q0,-5 5,-5
    h92.234375
    q5,0 5,5
    v24
    q0,5 -5,5
    h-92.234375
    q-5,0 -5,-5
    Z"></path><line class="node-line-" x1="-51.1171875" y1="17" x2="51.1171875" y2="17"></line><g class="label" style="" transform="translate(-31.1171875, -12)"><rect></rect><foreignObject width="62.234375" height="24"><div xmlns="http://www.w3.org/1999/xhtml" style="display: table-cell; white-space: nowrap; line-height: 1.5; max-width: 200px; text-align: center;"><span class="nodeLabel"><p>From file</p></span></div></foreignObject></g></g><g class="node mindmap-node section-1" id="node_9" transform="translate(659.9359755993063, 44)"><path id="node-9" class="node-bkg node-0" style="" d="M-120 24
    v-48
    q0,-5 5,-5
    h230
    q5,0 5,5
    v48
    q0,5 -5,5
    h-230
    q-5,0 -5,-5
    Z"></path><line class="node-line-" x1="-120" y1="29" x2="120" y2="29"></line><g class="label" style="" transform="translate(-100, -24)"><rect></rect><foreignObject width="200" height="48"><div xmlns="http://www.w3.org/1999/xhtml" style="display: table; white-space: break-spaces; line-height: 1.5; max-width: 200px; text-align: center; width: 200px;"><span class="nodeLabel"><p>sed do_something my_file.txt</p></span></div></foreignObject></g></g><g class="node mindmap-node section-1" id="node_10" transform="translate(792.4170647408181, 217.55611703538682)"><path id="node-10" class="node-bkg node-0" style="" d="M-39.5625 12
    v-24
    q0,-5 5,-5
    h69.125
    q5,0 5,5
    v24
    q0,5 -5,5
    h-69.125
    q-5,0 -5,-5
    Z"></path><line class="node-line-" x1="-39.5625" y1="17" x2="39.5625" y2="17"></line><g class="label" style="" transform="translate(-19.5625, -12)"><rect></rect><foreignObject width="39.125" height="24"><div xmlns="http://www.w3.org/1999/xhtml" style="display: table-cell; white-space: nowrap; line-height: 1.5; max-width: 200px; text-align: center;"><span class="nodeLabel"><p>In-file</p></span></div></foreignObject></g></g><g class="node mindmap-node section-1" id="node_11" transform="translate(961.9190885961597, 155.97541632444938)"><path id="node-11" class="node-bkg node-0" style="" d="M-120 24
    v-48
    q0,-5 5,-5
    h230
    q5,0 5,5
    v48
    q0,5 -5,5
    h-230
    q-5,0 -5,-5
    Z"></path><line class="node-line-" x1="-120" y1="29" x2="120" y2="29"></line><g class="label" style="" transform="translate(-100, -24)"><rect></rect><foreignObject width="200" height="48"><div xmlns="http://www.w3.org/1999/xhtml" style="display: table; white-space: break-spaces; line-height: 1.5; max-width: 200px; text-align: center; width: 200px;"><span class="nodeLabel"><p>sed --in-place do_something my_file.txt</p></span></div></foreignObject></g></g><g class="node mindmap-node section-2" id="node_12" transform="translate(712.8443781121847, 413.2419203366909)"><path id="node-12" class="node-bkg node-0" style="" d="M-59.1328125 12
    v-24
    q0,-5 5,-5
    h108.265625
    q5,0 5,5
    v24
    q0,5 -5,5
    h-108.265625
    q-5,0 -5,-5
    Z"></path><line class="node-line-" x1="-59.1328125" y1="17" x2="59.1328125" y2="17"></line><g class="label" style="" transform="translate(-39.1328125, -12)"><rect></rect><foreignObject width="78.265625" height="24"><div xmlns="http://www.w3.org/1999/xhtml" style="display: table-cell; white-space: nowrap; line-height: 1.5; max-width: 200px; text-align: center;"><span class="nodeLabel"><p>Operations</p></span></div></foreignObject></g></g><g class="node mindmap-node section-2" id="node_13" transform="translate(823.3962014356576, 353.7582023856595)"><path id="node-13" class="node-bkg node-0" style="" d="M-48.453125 12
    v-24
    q0,-5 5,-5
    h86.90625
    q5,0 5,5
    v24
    q0,5 -5,5
    h-86.90625
    q-5,0 -5,-5
    Z"></path><line class="node-line-" x1="-48.453125" y1="17" x2="48.453125" y2="17"></line><g class="label" style="" transform="translate(-28.453125, -12)"><rect></rect><foreignObject width="56.90625" height="24"><div xmlns="http://www.w3.org/1999/xhtml" style="display: table-cell; white-space: nowrap; line-height: 1.5; max-width: 200px; text-align: center;"><span class="nodeLabel"><p>Filtering</p></span></div></foreignObject></g></g><g class="node mindmap-node section-2" id="node_14" transform="translate(986.2966945635259, 309.5156031520188)"><path id="node-14" class="node-bkg node-0" style="" d="M-109.71875 12
    v-24
    q0,-5 5,-5
    h209.4375
    q5,0 5,5
    v24
    q0,5 -5,5
    h-209.4375
    q-5,0 -5,-5
    Z"></path><line class="node-line-" x1="-109.71875" y1="17" x2="109.71875" y2="17"></line><g class="label" style="" transform="translate(-89.71875, -12)"><rect></rect><foreignObject width="179.4375" height="24"><div xmlns="http://www.w3.org/1999/xhtml" style="display: table-cell; white-space: nowrap; line-height: 1.5; max-width: 200px; text-align: center;"><span class="nodeLabel"><p>sed --quiet "/my_regex/p"</p></span></div></foreignObject></g></g><g class="node mindmap-node section-2" id="node_15" transform="translate(886.3805248991729, 463.0759784171838)"><path id="node-15" class="node-bkg node-0" style="" d="M-61.8046875 12
    v-24
    q0,-5 5,-5
    h113.609375
    q5,0 5,5
    v24
    q0,5 -5,5
    h-113.609375
    q-5,0 -5,-5
    Z"></path><line class="node-line-" x1="-61.8046875" y1="17" x2="61.8046875" y2="17"></line><g class="label" style="" transform="translate(-41.8046875, -12)"><rect></rect><foreignObject width="83.609375" height="24"><div xmlns="http://www.w3.org/1999/xhtml" style="display: table-cell; white-space: nowrap; line-height: 1.5; max-width: 200px; text-align: center;"><span class="nodeLabel"><p>Substitution</p></span></div></foreignObject></g></g><g class="node mindmap-node section-2" id="node_16" transform="translate(1133.504375009566, 433.31008313039695)"><path id="node-16" class="node-bkg node-0" style="" d="M-130.609375 24
    v-48
    q0,-5 5,-5
    h251.21875
    q5,0 5,5
    v48
    q0,5 -5,5
    h-251.21875
    q-5,0 -5,-5
    Z"></path><line class="node-line-" x1="-130.609375" y1="29" x2="130.609375" y2="29"></line><g class="label" style="" transform="translate(-110.609375, -24)"><rect></rect><foreignObject width="221.21875" height="48"><div xmlns="http://www.w3.org/1999/xhtml" style="display: table; white-space: break-spaces; line-height: 1.5; max-width: 200px; text-align: center; width: 200px;"><span class="nodeLabel"><p>sed "s/my_regex/my_replacement/"</p></span></div></foreignObject></g></g><g class="node mindmap-node section-2" id="node_17" transform="translate(982.1297043469277, 544.3601352443826)"><path id="node-17" class="node-bkg node-0" style="" d="M-135.0546875 24
    v-48
    q0,-5 5,-5
    h260.109375
    q5,0 5,5
    v48
    q0,5 -5,5
    h-260.109375
    q-5,0 -5,-5
    Z"></path><line class="node-line-" x1="-135.0546875" y1="29" x2="135.0546875" y2="29"></line><g class="label" style="" transform="translate(-115.0546875, -24)"><rect></rect><foreignObject width="230.109375" height="48"><div xmlns="http://www.w3.org/1999/xhtml" style="display: table; white-space: break-spaces; line-height: 1.5; max-width: 200px; text-align: center; width: 200px;"><span class="nodeLabel"><p>sed "s/my_regex/my_replacement/p"</p></span></div></foreignObject></g></g><g class="node mindmap-node section-2" id="node_18" transform="translate(641.3035286243718, 488.2153619955408)"><path id="node-18" class="node-bkg node-0" style="" d="M-49.3515625 12
    v-24
    q0,-5 5,-5
    h88.703125
    q5,0 5,5
    v24
    q0,5 -5,5
    h-88.703125
    q-5,0 -5,-5
    Z"></path><line class="node-line-" x1="-49.3515625" y1="17" x2="49.3515625" y2="17"></line><g class="label" style="" transform="translate(-29.3515625, -12)"><rect></rect><foreignObject width="58.703125" height="24"><div xmlns="http://www.w3.org/1999/xhtml" style="display: table-cell; white-space: nowrap; line-height: 1.5; max-width: 200px; text-align: center;"><span class="nodeLabel"><p>Deletion</p></span></div></foreignObject></g></g><g class="node mindmap-node section-2" id="node_19" transform="translate(724.6401292257843, 557.1555402500047)"><path id="node-19" class="node-bkg node-0" style="" d="M-49.703125 12
    v-24
    q0,-5 5,-5
    h89.40625
    q5,0 5,5
    v24
    q0,5 -5,5
    h-89.40625
    q-5,0 -5,-5
    Z"></path><line class="node-line-" x1="-49.703125" y1="17" x2="49.703125" y2="17"></line><g class="label" style="" transform="translate(-29.703125, -12)"><rect></rect><foreignObject width="59.40625" height="24"><div xmlns="http://www.w3.org/1999/xhtml" style="display: table-cell; white-space: nowrap; line-height: 1.5; max-width: 200px; text-align: center;"><span class="nodeLabel"><p>sed "1d"</p></span></div></foreignObject></g></g><g class="node mindmap-node section-2" id="node_20" transform="translate(478.83033866060975, 452.8665809762889)"><path id="node-20" class="node-bkg node-0" style="" d="M-60.8203125 12
    v-24
    q0,-5 5,-5
    h111.640625
    q5,0 5,5
    v24
    q0,5 -5,5
    h-111.640625
    q-5,0 -5,-5
    Z"></path><line class="node-line-" x1="-60.8203125" y1="17" x2="60.8203125" y2="17"></line><g class="label" style="" transform="translate(-40.8203125, -12)"><rect></rect><foreignObject width="81.640625" height="24"><div xmlns="http://www.w3.org/1999/xhtml" style="display: table-cell; white-space: nowrap; line-height: 1.5; max-width: 200px; text-align: center;"><span class="nodeLabel"><p>sed "1,24d"</p></span></div></foreignObject></g></g><g class="node mindmap-node section-2" id="node_21" transform="translate(520.2156607803955, 547.063655990458)"><path id="node-21" class="node-bkg node-0" style="" d="M-105.3125 12
    v-24
    q0,-5 5,-5
    h200.625
    q5,0 5,5
    v24
    q0,5 -5,5
    h-200.625
    q-5,0 -5,-5
    Z"></path><line class="node-line-" x1="-105.3125" y1="17" x2="105.3125" y2="17"></line><g class="label" style="" transform="translate(-85.3125, -12)"><rect></rect><foreignObject width="170.625" height="24"><div xmlns="http://www.w3.org/1999/xhtml" style="display: table-cell; white-space: nowrap; line-height: 1.5; max-width: 200px; text-align: center;"><span class="nodeLabel"><p>sed "1,24d;4171,4493d"</p></span></div></foreignObject></g></g></g></g></g></svg>